<?xml version="1.0" encoding="UTF-8" standalone="no"?>
<!DOCTYPE svg PUBLIC "-//W3C//DTD SVG 1.1//EN" "http://www.w3.org/Graphics/SVG/1.1/DTD/svg11.dtd">
<svg width="100%" height="100%" viewBox="0 0 17 16" version="1.1" xmlns="http://www.w3.org/2000/svg" xmlns:xlink="http://www.w3.org/1999/xlink" xml:space="preserve"  style="fill-rule:evenodd;clip-rule:evenodd;stroke-linejoin:round;stroke-miterlimit:2;">
    <g transform="matrix(1,0,0,1,-729.929,-441.538)">
        <g transform="matrix(1,0,0,1,729.666,441.275)">
            <path d="M5.706,13.04C5.706,13.105 5.631,13.158 5.535,13.158C5.427,13.168 5.352,13.115 5.352,13.04C5.352,12.974 5.427,12.922 5.522,12.922C5.621,12.912 5.706,12.964 5.706,13.04ZM4.686,12.892C4.663,12.958 4.728,13.033 4.827,13.053C4.912,13.086 5.01,13.053 5.03,12.987C5.05,12.922 4.988,12.846 4.889,12.817C4.804,12.794 4.709,12.826 4.686,12.892ZM6.136,12.836C6.041,12.859 5.975,12.922 5.985,12.997C5.995,13.063 6.08,13.105 6.179,13.082C6.274,13.059 6.339,12.997 6.33,12.931C6.32,12.869 6.231,12.826 6.136,12.836ZM8.295,0.262C3.744,0.262 0.262,3.718 0.262,8.269C0.262,11.908 2.553,15.022 5.824,16.117C6.244,16.193 6.392,15.934 6.392,15.72C6.392,15.517 6.382,14.395 6.382,13.706C6.382,13.706 4.085,14.198 3.603,12.728C3.603,12.728 3.229,11.773 2.691,11.527C2.691,11.527 1.939,11.012 2.743,11.022C2.743,11.022 3.56,11.087 4.01,11.868C4.728,13.135 5.932,12.771 6.402,12.554C6.477,12.029 6.69,11.665 6.927,11.448C5.092,11.245 3.242,10.979 3.242,7.822C3.242,6.92 3.491,6.467 4.016,5.89C3.931,5.677 3.652,4.797 4.102,3.662C4.787,3.449 6.366,4.548 6.366,4.548C7.022,4.364 7.727,4.269 8.426,4.269C9.125,4.269 9.831,4.364 10.487,4.548C10.487,4.548 12.065,3.445 12.751,3.662C13.2,4.8 12.922,5.677 12.836,5.89C13.361,6.471 13.683,6.923 13.683,7.822C13.683,10.989 11.75,11.242 9.916,11.448C10.218,11.707 10.474,12.2 10.474,12.971C10.474,14.077 10.464,15.445 10.464,15.714C10.464,15.927 10.615,16.186 11.032,16.111C14.313,15.022 16.537,11.908 16.537,8.269C16.537,3.718 12.846,0.262 8.295,0.262ZM3.452,11.58C3.409,11.612 3.419,11.688 3.475,11.75C3.527,11.803 3.603,11.826 3.645,11.783C3.688,11.75 3.678,11.675 3.622,11.612C3.57,11.56 3.495,11.537 3.452,11.58ZM3.097,11.314C3.075,11.356 3.107,11.409 3.173,11.442C3.225,11.475 3.291,11.465 3.314,11.419C3.337,11.376 3.304,11.324 3.239,11.291C3.173,11.271 3.12,11.281 3.097,11.314ZM4.161,12.482C4.108,12.525 4.128,12.623 4.203,12.685C4.279,12.761 4.374,12.771 4.417,12.718C4.459,12.675 4.44,12.577 4.374,12.515C4.302,12.439 4.203,12.429 4.161,12.482ZM3.787,12C3.734,12.032 3.734,12.118 3.787,12.193C3.839,12.269 3.928,12.301 3.97,12.269C4.023,12.226 4.023,12.141 3.97,12.065C3.924,11.99 3.839,11.957 3.787,12Z" style="fill:white;fill-rule:nonzero;"/>
        </g>
    </g>
</svg>
