<?xml version="1.0" encoding="UTF-8" standalone="no"?>
<!DOCTYPE svg PUBLIC "-//W3C//DTD SVG 1.1//EN" "http://www.w3.org/Graphics/SVG/1.1/DTD/svg11.dtd">
<svg width="100%" height="100%" viewBox="0 0 20 20" version="1.1" xmlns="http://www.w3.org/2000/svg" xmlns:xlink="http://www.w3.org/1999/xlink" xml:space="preserve" style="fill-rule:evenodd;clip-rule:evenodd;stroke-linejoin:round;stroke-miterlimit:2;">
    <g transform="matrix(1,0,0,1,-693.604,-1266.86)">
        <g transform="matrix(1,0,0,1,691.604,1264.86)">
            <path d="M11,18L13,18L13,16L11,16L11,18ZM12,2C6.48,2 2,6.48 2,12C2,17.52 6.48,22 12,22C17.52,22 22,17.52 22,12C22,6.48 17.52,2 12,2ZM12,20C7.59,20 4,16.41 4,12C4,7.59 7.59,4 12,4C16.41,4 20,7.59 20,12C20,16.41 16.41,20 12,20ZM12,6C9.79,6 8,7.79 8,10L10,10C10,8.9 10.9,8 12,8C13.1,8 14,8.9 14,10C14,12 11,11.75 11,15L13,15C13,12.75 16,12.5 16,10C16,7.79 14.21,6 12,6Z" style="fill-rule:nonzero;"/>
        </g>
    </g>
</svg>
