<?xml version="1.0" encoding="UTF-8" standalone="no"?>
<!DOCTYPE svg PUBLIC "-//W3C//DTD SVG 1.1//EN" "http://www.w3.org/Graphics/SVG/1.1/DTD/svg11.dtd">
<svg width="100%" height="100%" viewBox="0 0 17 15" version="1.1" xmlns="http://www.w3.org/2000/svg" xmlns:xlink="http://www.w3.org/1999/xlink" xml:space="preserve" xmlns:serif="http://www.serif.com/" style="fill-rule:evenodd;clip-rule:evenodd;stroke-linejoin:round;stroke-miterlimit:2;">
    <g transform="matrix(1,0,0,1,-773.733,-443.762)">
        <g transform="matrix(1,0,0,1,773.503,442.712)">
            <path d="M2.36,1.141C1.647,1.564 0.243,3.178 0.23,3.601L0.23,4.301C0.23,5.189 1.06,5.969 1.813,5.969C2.718,5.969 3.471,5.219 3.471,4.328C3.471,5.218 4.199,5.969 5.104,5.969C6.009,5.969 6.712,5.219 6.712,4.328C6.712,5.218 7.486,5.969 8.39,5.969L8.407,5.969C9.312,5.969 10.086,5.219 10.086,4.328C10.086,5.218 10.79,5.969 11.693,5.969C12.597,5.969 13.326,5.219 13.326,4.328C13.326,5.218 14.081,5.969 14.984,5.969C15.739,5.969 16.568,5.189 16.568,4.301L16.568,3.601C16.555,3.177 15.15,1.564 14.437,1.14C12.225,1.063 10.689,1.05 8.4,1.05C6.111,1.05 2.991,1.086 2.36,1.141ZM6.702,5.551C5.98,6.811 4.146,6.821 3.425,5.559C2.993,6.318 2.009,6.611 1.588,6.466C1.461,7.784 1.139,14.247 2.17,15.298C4.795,15.91 12.082,15.892 14.63,15.298C15.669,14.239 15.33,7.685 15.213,6.466C14.789,6.612 13.806,6.315 13.375,5.559C12.653,6.823 10.821,6.809 10.099,5.551C9.866,5.961 9.343,6.5 8.401,6.5C7.704,6.522 7.049,6.156 6.703,5.551L6.702,5.551ZM5.337,7.315C5.878,7.315 6.357,7.315 6.952,7.964C7.914,7.866 8.884,7.866 9.846,7.964C10.442,7.317 10.922,7.317 11.462,7.317C13.179,7.317 13.602,9.861 14.214,12.057C14.78,14.096 14.033,14.146 13.1,14.148C11.717,14.097 10.951,13.092 10.951,12.088C9.663,12.299 7.606,12.376 5.847,12.088C5.847,13.092 5.081,14.097 3.698,14.148C2.765,14.146 2.018,14.096 2.584,12.057C3.197,9.859 3.62,7.317 5.337,7.317L5.337,7.315ZM8.4,8.885C8.4,8.885 6.944,10.223 6.682,10.697L7.634,10.658L7.634,11.489C7.634,11.54 8.334,11.495 8.399,11.495C8.782,11.512 9.164,11.527 9.164,11.489L9.164,10.66L10.116,10.698C9.853,10.223 8.398,8.886 8.398,8.886L8.4,8.885Z" style="fill:white;fill-rule:nonzero;"/>
        </g>
    </g>
</svg>
