<?xml version="1.0" encoding="UTF-8" standalone="no"?>
<!DOCTYPE svg PUBLIC "-//W3C//DTD SVG 1.1//EN" "http://www.w3.org/Graphics/SVG/1.1/DTD/svg11.dtd">
<svg width="100%" height="100%" viewBox="0 0 17 14" version="1.1" xmlns="http://www.w3.org/2000/svg" xmlns:xlink="http://www.w3.org/1999/xlink" xml:space="preserve"  style="fill-rule:evenodd;clip-rule:evenodd;stroke-linejoin:round;stroke-miterlimit:2;">
    <g transform="matrix(1,0,0,1,-685.6,-443.762)">
        <g transform="matrix(1,0,0,1,685.6,442.184)">
            <path d="M15.073,4.978C15.084,5.127 15.084,5.277 15.084,5.426C15.084,9.978 11.619,15.222 5.287,15.222C3.337,15.222 1.524,14.657 0,13.677C0.277,13.709 0.544,13.719 0.831,13.719C2.441,13.719 3.923,13.176 5.106,12.248C3.592,12.216 2.324,11.225 1.887,9.86C2.1,9.892 2.313,9.914 2.537,9.914C2.846,9.914 3.155,9.871 3.443,9.796C1.865,9.477 0.682,8.091 0.682,6.417L0.682,6.375C1.141,6.63 1.674,6.79 2.239,6.812C1.311,6.193 0.704,5.138 0.704,3.944C0.704,3.305 0.874,2.718 1.173,2.207C2.867,4.296 5.415,5.66 8.272,5.81C8.219,5.554 8.187,5.287 8.187,5.021C8.187,3.123 9.722,1.578 11.63,1.578C12.621,1.578 13.517,1.993 14.146,2.665C14.924,2.516 15.67,2.228 16.331,1.834C16.075,2.633 15.531,3.305 14.817,3.731C15.51,3.656 16.182,3.464 16.8,3.198C16.331,3.88 15.745,4.488 15.073,4.978Z" style="fill:white;fill-rule:nonzero;"/>
        </g>
    </g>
</svg>
